<svg width="320" height="320" viewBox="0 0 320 320" fill="none" xmlns="http://www.w3.org/2000/svg">
  <defs>
    <radialGradient id="bg" cx="0" cy="0" r="1" gradientUnits="userSpaceOnUse" gradientTransform="translate(102 88) rotate(46) scale(262)">
      <stop stop-color="#88D5CF" />
      <stop offset="0.55" stop-color="#4EA3A3" />
      <stop offset="1" stop-color="#2B5867" />
    </radialGradient>
    <linearGradient id="hair" x1="99" y1="84" x2="219" y2="160" gradientUnits="userSpaceOnUse">
      <stop stop-color="#13151B" />
      <stop offset="1" stop-color="#2B2F37" />
    </linearGradient>
    <linearGradient id="shirt" x1="160" y1="212" x2="160" y2="308" gradientUnits="userSpaceOnUse">
      <stop stop-color="#131A24" />
      <stop offset="1" stop-color="#0C111A" />
    </linearGradient>
    <clipPath id="clipCircle">
      <circle cx="160" cy="160" r="156" />
    </clipPath>
  </defs>

  <g clip-path="url(#clipCircle)">
    <rect width="320" height="320" fill="url(#bg)" />

    <rect x="8" y="20" width="58" height="280" rx="14" fill="rgba(255,255,255,0.18)" />
    <rect x="254" y="14" width="36" height="272" rx="10" fill="rgba(255,255,255,0.15)" />

    <ellipse cx="160" cy="258" rx="98" ry="88" fill="url(#shirt)" />

    <ellipse cx="160" cy="152" rx="72" ry="82" fill="#E9C7B7" />
    <ellipse cx="160" cy="184" rx="60" ry="34" fill="#D9AFA1" opacity="0.24" />

    <path d="M97 126C97 88 124 64 159 64C193 64 221 88 221 126V143C206 116 183 104 160 104C136 104 113 116 99 142L97 126Z" fill="url(#hair)" />
    <path d="M95 127C95 95 121 72 152 72H173C205 72 231 97 231 128V135C225 118 204 100 185 96C167 92 147 97 129 107C116 114 104 124 96 138L95 127Z" fill="url(#hair)" />

    <ellipse cx="135" cy="154" rx="7" ry="5" fill="#2C313A" />
    <ellipse cx="185" cy="154" rx="7" ry="5" fill="#2C313A" />
    <path d="M145 184C153 191 166 191 174 184" stroke="#945F56" stroke-width="3.2" stroke-linecap="round" />

    <ellipse cx="102" cy="168" rx="20" ry="26" fill="#E9C7B7" />
    <ellipse cx="218" cy="168" rx="20" ry="26" fill="#E9C7B7" />

    <ellipse cx="160" cy="230" rx="62" ry="36" fill="#151D27" />
  </g>

  <circle cx="160" cy="160" r="156" stroke="rgba(0,0,0,0.1)" stroke-width="8" />
</svg>
